<svg width="234.00000000000003" height="231" xmlns="http://www.w3.org/2000/svg">
 <!-- Created with SVG Editor - http://github.com/mzalive/SVG Editor/ -->

 <g>
  <title>background</title>
  <rect fill="none" id="canvas_background" height="233" width="236" y="-1" x="-1"/>
  <g display="none" overflow="visible" y="0" x="0" height="100%" width="100%" id="canvasGrid">
   <rect fill="url(#gridpattern)" stroke-width="0" y="2" x="2" height="400" width="580"/>
  </g>
 </g>
 <g>
  <title>Layer 1</title>
  <g stroke="null" id="svg_5">
   <path stroke="null" id="svg_4" fill="#000000" d="m231.104639,69.215277l-0.068909,-0.599394c-0.127482,-0.750305 -0.354882,-1.474655 -0.677606,-2.148585l-33.779237,-60.532158c0,0 -4.307967,-5.93514 -5.331267,-5.93514l-143.947072,0l-43.290644,64.413807l-0.51188,0.593422l-0.069254,0.278967c-0.365792,0.654062 -0.666121,1.350618 -0.895703,2.077379l-0.175948,0.575621c-0.498787,1.842629 -0.474554,3.811706 0.069368,5.638372l0.202593,0.646942c0.271846,0.76558 0.607663,1.465926 1.002283,2.089094l104.659932,147.588458l0.213274,0.338803c0.53841,0.770633 1.194195,1.453982 1.993885,2.076461l0.607778,0.421494c0.597097,0.415752 1.220954,0.747664 2.127224,1.116327l0.591814,0.219361c1.023989,0.290567 1.914065,0.427236 2.783468,0.427236c0.878591,0 1.737658,-0.130927 2.894182,-0.462839l0.709764,-0.279082c0.692536,-0.273339 1.316164,-0.610994 2.068421,-1.127812l0.468582,-0.32617c0.805088,-0.635112 1.450536,-1.323055 1.807715,-1.863991l104.793501,-147.742355c0.926827,-1.376344 1.53093,-2.987669 1.759479,-4.688804l0.079245,-0.76558l0.042494,-0.605366l-0.127482,-1.424466l0,0zm-56.193067,-3.929082l14.91767,-30.049417l14.906185,30.049417l-29.823855,0zm-8.945549,17.805305l35.389412,0l-58.986182,83.180739l23.59677,-83.180739zm-8.753752,-26.814824l-21.544427,-32.536231l37.693273,0l-16.148846,32.536231zm-69.009584,26.814824l56.826457,0l-28.420406,100.16683l-28.40605,-100.16683zm5.635271,-17.805305l22.77078,-34.399878l22.769861,34.399878l-45.54064,0zm-16.036753,-11.703979l-9.873639,-29.841771l29.626315,0l-19.752676,29.841771l0,0zm13.05655,112.695766l-58.99158,-83.186481l35.394925,0l23.596655,83.186481zm-40.011834,-130.833443l9.878922,29.841656l-29.631713,0l19.752791,-29.841656l0,0z"/>
  </g>
 </g>
</svg>