<svg width="22" height="24" viewBox="0 0 22 24" fill="none" xmlns="http://www.w3.org/2000/svg">
<path d="M7.564 2.445C7.564 2.12 7.597 1.925 8.154 1.925H15.619C16.919 1.925 17.639 3.035 18.159 5.118L18.579 6.784H19.849C20.079 2.056 20.279 0 20.279 0C20.279 0 17.083 0.36 15.189 0.36H5.64L0.526001 0.196V1.566L2.251 1.892C3.461 2.132 3.751 2.388 3.851 3.498C3.851 3.498 3.961 6.768 3.961 12.138C3.961 17.523 3.871 20.748 3.871 20.748C3.871 21.721 3.481 22.081 2.281 22.321L0.559001 22.651V24L5.689 23.835H14.239C16.174 23.835 20.629 24 20.629 24C20.734 22.83 21.379 17.52 21.484 16.936H20.284L19 19.846C17.995 22.126 16.524 22.291 14.89 22.291H9.984C8.354 22.291 7.569 21.651 7.569 20.241V12.8C7.569 12.8 11.189 12.8 12.359 12.896C13.271 12.96 13.822 13.221 14.119 14.494L14.509 16.189H15.919L15.829 11.911L16.021 7.606H14.63L14.18 9.496C13.897 10.74 13.7 10.966 12.426 11.096C10.76 11.266 7.611 11.236 7.611 11.236V2.45H7.561L7.564 2.445Z" fill="white"/>
</svg>
