<svg width="21" height="21" viewBox="0 0 21 21" fill="none" xmlns="http://www.w3.org/2000/svg">
<path d="M20.1308 6.93303L20.1248 6.88084C20.1137 6.81551 20.0939 6.75244 20.0658 6.69376L17.1246 1.42315C17.1246 1.42315 16.7495 0.906372 16.6604 0.906372H4.12675L0.357375 6.51496L0.31281 6.56663L0.306776 6.59092C0.274934 6.64787 0.248783 6.70852 0.228789 6.7718L0.21347 6.82192C0.170039 6.98236 0.172147 7.15381 0.219505 7.31286L0.237145 7.36919C0.260819 7.43585 0.290064 7.49683 0.324416 7.55109L9.43729 20.4018L9.45586 20.4313C9.50274 20.4984 9.55984 20.5579 9.62947 20.6121L9.68239 20.6488C9.73438 20.685 9.7887 20.7139 9.86761 20.746L9.91914 20.7651C10.0083 20.7904 10.0858 20.8023 10.1615 20.8023C10.238 20.8023 10.3128 20.7909 10.4135 20.762L10.4753 20.7377C10.5356 20.7139 10.5899 20.6845 10.6554 20.6395L10.6962 20.6111C10.7663 20.5558 10.8225 20.4959 10.8536 20.4488L19.9781 7.58469C20.0588 7.46485 20.1114 7.32455 20.1313 7.17643L20.1382 7.10977L20.1419 7.05706L20.1308 6.93303V6.93303ZM15.238 6.59092L16.5369 3.97448L17.8348 6.59092H15.238ZM14.4591 8.14125H17.5405L12.4045 15.3839L14.4591 8.14125ZM13.6969 5.80645L11.821 2.97348H15.103L13.6969 5.80645ZM7.68815 8.14125H12.6361L10.1615 16.8629L7.68815 8.14125ZM8.17882 6.59092L10.1615 3.59568L12.1441 6.59092H8.17882ZM6.78248 5.57184L5.92277 2.97348H8.50237L6.78248 5.57184V5.57184ZM7.91933 15.3844L2.78286 8.14125H5.86474L7.91933 15.3844ZM4.43545 3.99257L5.29562 6.59092H2.71555L4.43545 3.99257V3.99257Z" fill="white"/>
</svg>
