<svg width="34" height="34" viewBox="0 0 34 34" fill="none" xmlns="http://www.w3.org/2000/svg">
<path d="M17 0.333313C19.2102 0.333313 21.3298 1.21129 22.8926 2.77409C24.4554 4.33689 25.3334 6.45651 25.3334 8.66665C25.3334 10.8768 24.4554 12.9964 22.8926 14.5592C21.3298 16.122 19.2102 17 17 17C14.7899 17 12.6703 16.122 11.1075 14.5592C9.54468 12.9964 8.66671 10.8768 8.66671 8.66665C8.66671 6.45651 9.54468 4.33689 11.1075 2.77409C12.6703 1.21129 14.7899 0.333313 17 0.333313ZM17 21.1666C26.2084 21.1666 33.6667 24.8958 33.6667 29.5V33.6666H0.333374V29.5C0.333374 24.8958 7.79171 21.1666 17 21.1666Z" fill="white"/>
</svg>
