<svg width="36" height="22" viewBox="0 0 36 22" fill="none" xmlns="http://www.w3.org/2000/svg">
<path fill-rule="evenodd" clip-rule="evenodd" d="M32.0436 15.1364C32.0436 15.1364 34.9542 18.011 35.6742 19.3412C35.6882 19.3603 35.6992 19.3816 35.7066 19.4042C36 19.8956 36.072 20.2808 35.928 20.5652C35.685 21.035 34.8624 21.2708 34.5834 21.2906H29.439C29.0808 21.2906 28.3356 21.197 27.4284 20.5706C26.7354 20.0864 26.046 19.289 25.3782 18.5096C24.381 17.3522 23.5188 16.3478 22.6458 16.3478C22.5356 16.3475 22.4261 16.3658 22.3218 16.4018C21.6612 16.6106 20.8224 17.552 20.8224 20.0594C20.8224 20.8442 20.2032 21.2906 19.7694 21.2906H17.4132C16.6104 21.2906 12.4308 21.0098 8.72464 17.102C4.18324 12.3176 0.10444 2.71995 0.06484 2.63535C-0.18896 2.01435 0.34384 1.67595 0.91984 1.67595H6.11464C6.81124 1.67595 7.03804 2.09715 7.19644 2.47515C7.38004 2.90895 8.06044 4.64415 9.17644 6.59355C10.9836 9.76515 12.0942 11.0558 12.9816 11.0558C13.1484 11.0562 13.3123 11.0128 13.4568 10.9298C14.616 10.2926 14.4 6.15255 14.346 5.29935C14.346 5.13375 14.3442 3.45075 13.7502 2.63715C13.3254 2.05395 12.6018 1.82715 12.1644 1.74435C12.2814 1.57515 12.5298 1.31595 12.8484 1.16295C13.6422 0.76695 15.0768 0.709351 16.5006 0.709351H17.2908C18.8352 0.730951 19.2348 0.82995 19.7964 0.97215C20.9268 1.24215 20.9484 1.97475 20.8494 4.46955C20.8206 5.18235 20.79 5.98515 20.79 6.93015C20.79 7.13175 20.781 7.35675 20.781 7.58535C20.7468 8.86515 20.7018 10.307 21.6054 10.8992C21.7226 10.9722 21.858 11.0108 21.996 11.0108C22.3092 11.0108 23.247 11.0108 25.7904 6.64575C26.9064 4.71795 27.7704 2.44455 27.8298 2.27355C27.8802 2.17815 28.0314 1.90995 28.215 1.80195C28.3456 1.73246 28.4919 1.69775 28.6398 1.70115H34.7508C35.4168 1.70115 35.8686 1.80195 35.9568 2.05395C36.1044 2.46255 35.928 3.70995 33.138 7.48275C32.6682 8.11095 32.256 8.65455 31.8942 9.12975C29.3652 12.449 29.3652 12.6164 32.0436 15.1364Z" fill="white"/>
</svg>
