<svg width="35" height="25" viewBox="0 0 35 25" fill="none" xmlns="http://www.w3.org/2000/svg">
<path d="M33.8435 4.28559C33.6493 3.56414 33.269 2.90634 32.7407 2.37804C32.2124 1.84974 31.5546 1.46947 30.8332 1.27528C28.1763 0.556214 17.5001 0.556213 17.5001 0.556213C17.5001 0.556213 6.82381 0.556214 4.16694 1.27528C3.44549 1.46947 2.78769 1.84974 2.25939 2.37804C1.73109 2.90634 1.35082 3.56414 1.15662 4.28559C0.660527 6.99519 0.419785 9.74537 0.437563 12.5C0.419785 15.2545 0.660527 18.0047 1.15662 20.7143C1.35082 21.4358 1.73109 22.0936 2.25939 22.6219C2.78769 23.1502 3.44549 23.5305 4.16694 23.7246C6.82381 24.4437 17.5001 24.4437 17.5001 24.4437C17.5001 24.4437 28.1763 24.4437 30.8332 23.7246C31.5546 23.5305 32.2124 23.1502 32.7407 22.6219C33.269 22.0936 33.6493 21.4358 33.8435 20.7143C34.3396 18.0047 34.5803 15.2545 34.5626 12.5C34.5803 9.74537 34.3396 6.99519 33.8435 4.28559ZM14.0876 17.6187V7.38121L22.9479 12.5L14.0876 17.6187Z" fill="white"/>
</svg>
