<svg width="118.00000000000001" height="30" xmlns="http://www.w3.org/2000/svg">
 <!-- Created with SVG Editor - http://github.com/mzalive/SVG Editor/ -->

 <g>
  <title>background</title>
  <rect fill="none" id="canvas_background" height="32" width="120" y="-1" x="-1"/>
  <g display="none" overflow="visible" y="0" x="0" height="100%" width="100%" id="canvasGrid">
   <rect fill="url(#gridpattern)" stroke-width="0" y="1" x="1" height="28" width="116"/>
  </g>
 </g>
 <g>
  <title>Layer 1</title>
  <g id="svg_8">
   <path id="svg_4" fill="white" d="m25.335826,24.804364c-2.668609,2.66012 -5.934468,3.99018 -9.797579,3.99018c-3.863164,0 -7.141757,-1.33006 -9.835774,-3.99018c-2.668614,-2.685427 -4.002918,-5.953568 -4.002918,-9.80437c0,-3.850802 1.334304,-7.106262 4.002918,-9.766387c2.694017,-2.685443 5.97261,-4.028162 9.835774,-4.028162c3.863111,0 7.12897,1.342719 9.797579,4.028162c2.694076,2.660125 4.04106,5.915586 4.04106,9.766387c0,3.850802 -1.346985,7.118943 -4.04106,9.80437zm-16.545395,-2.964077c1.8299,1.798703 4.079154,2.698108 6.747816,2.698108c2.668609,0 4.90513,-0.899405 6.709616,-2.698108c1.8299,-1.824117 2.744903,-4.104197 2.744903,-6.840293c0,-2.736096 -0.915003,-5.003548 -2.744903,-6.802252c-1.804486,-1.82409 -4.041007,-2.736128 -6.709616,-2.736128c-2.668662,0 -4.917916,0.912037 -6.747816,2.736128c-1.804481,1.798703 -2.706724,4.066156 -2.706724,6.802252c0,2.736096 0.902243,5.016176 2.706724,6.840293z"/>
   <path id="svg_5" fill="white" d="m44.252928,28.794544c-4.142715,0 -7.001954,-1.62139 -8.577663,-4.86417l3.774136,-2.204104c0.864122,1.874732 2.478032,2.812125 4.841675,2.812125c1.524881,0 2.694022,-0.367359 3.507317,-1.102078c0.838709,-0.760027 1.258063,-1.824064 1.258063,-3.192112l0,-18.54474l4.38412,0l0,18.54474c0,2.736096 -0.864122,4.851543 -2.592367,6.346236c-1.728245,1.469385 -3.926672,2.204104 -6.59528,2.204104z"/>
   <path id="svg_6" fill="white" d="m69.963475,28.794544c-4.142609,0 -7.001795,-1.62139 -8.577557,-4.86417l3.774401,-2.204104c0.863751,1.874732 2.477713,2.812125 4.841356,2.812125c1.524828,0 2.694182,-0.367359 3.50753,-1.102078c0.838815,-0.760027 1.257957,-1.824064 1.257957,-3.192112l0,-18.54474l4.384014,0l0,18.54474c0,2.736096 -0.863751,4.851543 -2.592314,6.346236c-1.728033,1.469385 -3.926672,2.204104 -6.595386,2.204104z"/>
   <path id="svg_7" fill="white" d="m112.259156,24.804364c-2.668184,2.66012 -5.934309,3.99018 -9.797314,3.99018c-3.863004,0 -7.141863,-1.33006 -9.836044,-3.99018c-2.668184,-2.685427 -4.002542,-5.953568 -4.002542,-9.80437c0,-3.850802 1.334357,-7.106262 4.002542,-9.766387c2.694182,-2.685443 5.97304,-4.028162 9.836044,-4.028162c3.863004,0 7.129129,1.342719 9.797314,4.028162c2.694182,2.660125 4.041272,5.915586 4.041272,9.766387c0,3.850802 -1.347091,7.118943 -4.041272,9.80437zm-16.544971,-2.964077c1.8299,1.798703 4.078942,2.698108 6.747657,2.698108c2.668715,0 4.905024,-0.899405 6.709457,-2.698108c1.8299,-1.824117 2.745115,-4.104197 2.745115,-6.840293c0,-2.736096 -0.915215,-5.003548 -2.745115,-6.802252c-1.804433,-1.82409 -4.040742,-2.736128 -6.709457,-2.736128c-2.668715,0 -4.917757,0.912037 -6.747657,2.736128c-1.804433,1.798703 -2.706915,4.066156 -2.706915,6.802252c0,2.736096 0.902482,5.016176 2.706915,6.840293z"/>
  </g>
  <g stroke="null" id="svg_13">
   <path stroke="null" id="svg_12" fill="white" d="m21.086045,13.349228l-0.003334,-0.029004c-0.006169,-0.036306 -0.017172,-0.071356 -0.032788,-0.103967l-1.634529,-2.929064c0,0 -0.208456,-0.287193 -0.257972,-0.287193l-6.965392,0l-2.094772,3.116891l-0.024769,0.028715l-0.003351,0.013499c-0.0177,0.031649 -0.032233,0.065354 -0.043342,0.100521l-0.008514,0.027853c-0.024136,0.089162 -0.022963,0.184443 0.003357,0.272833l0.009803,0.031305c0.013154,0.037045 0.029404,0.070934 0.048499,0.101094l5.064344,7.141588l0.01032,0.016394c0.026053,0.03729 0.057785,0.070356 0.096481,0.100477l0.02941,0.020395c0.028893,0.020118 0.05908,0.036178 0.102933,0.054017l0.028637,0.010615c0.049549,0.01406 0.092619,0.020673 0.134688,0.020673c0.042514,0 0.084083,-0.006335 0.140045,-0.022396l0.034344,-0.013504c0.033511,-0.013227 0.063687,-0.029565 0.100088,-0.054573l0.022674,-0.015783c0.038957,-0.030732 0.070189,-0.064021 0.087473,-0.090196l5.070807,-7.14904c0.044848,-0.066599 0.07408,-0.144569 0.085139,-0.226884l0.003835,-0.037045l0.002056,-0.029293l-0.006169,-0.068928zm-2.719102,-0.190123l0.721845,-1.454048l0.721289,1.454048l-1.443133,0zm-0.432862,0.861573l1.712443,0l-2.854256,4.024996l1.141814,-4.024996zm-0.423581,-1.297525l-1.042504,-1.574387l1.823923,0l-0.781419,1.574387zm-3.339274,1.297525l2.74975,0l-1.375223,4.846929l-1.374528,-4.846929zm0.272683,-0.861573l1.101845,-1.664561l1.101801,1.664561l-2.203646,0zm-0.775995,-0.566339l-0.477771,-1.444l1.433575,0l-0.955804,1.444zm0.631788,5.453186l-2.854518,-4.025274l1.712709,0l1.141808,4.025274zm-1.936115,-6.330842l0.478027,1.443995l-1.433836,0l0.955809,-1.443995z"/>
  </g>
  <g stroke="null" id="svg_15">
   <path stroke="null" id="svg_14" fill="white" d="m108.08605,13.34923l-0.00334,-0.02901c-0.00617,-0.0363 -0.01717,-0.07135 -0.03279,-0.10396l-1.63453,-2.92907c0,0 -0.20845,-0.28719 -0.25797,-0.28719l-6.96539,0l-2.09477,3.11689l-0.02477,0.02872l-0.00335,0.0135c-0.0177,0.03164 -0.03224,0.06535 -0.04334,0.10052l-0.00852,0.02785c-0.02413,0.08916 -0.02296,0.18444 0.00336,0.27283l0.0098,0.03131c0.01316,0.03704 0.02941,0.07093 0.0485,0.10109l5.06434,7.14159l0.01032,0.01639c0.02606,0.03729 0.05779,0.07036 0.09649,0.10048l0.0294,0.0204c0.0289,0.02011 0.05909,0.03617 0.10294,0.05401l0.02864,0.01062c0.04954,0.01406 0.09261,0.02067 0.13468,0.02067c0.04252,0 0.08409,-0.00633 0.14005,-0.0224l0.03434,-0.0135c0.03351,-0.01323 0.06369,-0.02957 0.10009,-0.05457l0.02267,-0.01579c0.03896,-0.03073 0.07019,-0.06402 0.08748,-0.09019l5.0708,-7.14904c0.04485,-0.0666 0.07408,-0.14457 0.08514,-0.22689l0.00384,-0.03704l0.00205,-0.02929l-0.00616,-0.06893zm-2.71911,-0.19012l0.72185,-1.45405l0.72129,1.45405l-1.44314,0zm-0.43286,0.86157l1.71244,0l-2.85425,4.02499l1.14181,-4.02499zm-0.42358,-1.29753l-1.0425,-1.57438l1.82392,0l-0.78142,1.57438zm-3.33927,1.29753l2.74975,0l-1.37523,4.84693l-1.37452,-4.84693zm0.27268,-0.86157l1.10184,-1.66457l1.1018,1.66457l-2.20364,0zm-0.776,-0.56634l-0.47777,-1.444l1.43358,0l-0.95581,1.444zm0.63179,5.45318l-2.85452,-4.02527l1.71271,0l1.14181,4.02527zm-1.93611,-6.33084l0.47802,1.444l-1.43383,0l0.95581,-1.444z"/>
  </g>
 </g>
</svg>